<?xml version="1.0" encoding="UTF-8" standalone="no"?>
<!-- Created with Inkscape (http://www.inkscape.org/) -->

<svg
   width="210mm"
   height="297mm"
   viewBox="0 0 210 297"
   version="1.1"
   id="svg5"
   xml:space="preserve"
   inkscape:export-filename="black_cow.svg"
   inkscape:export-xdpi="96"
   inkscape:export-ydpi="96"
   xmlns:inkscape="http://www.inkscape.org/namespaces/inkscape"
   xmlns:sodipodi="http://sodipodi.sourceforge.net/DTD/sodipodi-0.dtd"
   xmlns="http://www.w3.org/2000/svg"
   xmlns:svg="http://www.w3.org/2000/svg"><sodipodi:namedview
     id="namedview7"
     pagecolor="#ffffff"
     bordercolor="#000000"
     borderopacity="0.25"
     inkscape:showpageshadow="2"
     inkscape:pageopacity="0.0"
     inkscape:pagecheckerboard="0"
     inkscape:deskcolor="#d1d1d1"
     inkscape:document-units="mm"
     showgrid="false" /><defs
     id="defs2" /><g
     inkscape:label="Layer 1"
     inkscape:groupmode="layer"
     id="layer1"><g
       inkscape:label="Layer 1"
       id="layer1-6"
       transform="translate(-24.200236,-137.29071)"
       style="fill:#2a2a2a;fill-opacity:1"><path
         style="fill:#2a2a2a;fill-opacity:1;stroke-width:0.264583"
         d="m 82.594285,213.52178 h 1.237501"
         id="path254" /><path
         style="opacity:1;fill:#2a2a2a;fill-opacity:1;fill-rule:nonzero;stroke-width:0.264583"
         d="m 47.802437,201.21026 c 0,0 45.602326,5.20027 89.404563,-3.40017 0,0 1.10735,-0.38295 1.03664,-2.22152 0,0 -2.75786,-4.24286 -3.53572,-4.03071 0,0 -1.76785,-1.55572 2.05072,-2.89929 0,0 4.87928,4.455 6.22285,3.60643 l 9.405,-0.0707 7.28358,-5.51571 c 0,0 5.79857,0.35357 2.68714,3.39428 0,0 -5.09143,4.10143 -6.36429,3.88928 0,0 12.02143,14.63786 14.42572,15.48643 0,0 1.06071,1.98 0.63643,2.54572 l -1.41429,3.81857 -1.06071,1.06071 c 0,0 -10.60715,1.20214 -11.24358,1.13143 -0.63642,-0.0707 -12.23357,5.65714 -12.23357,5.65714 0,0 -11.5961,18.75022 -10.89607,20.1503 l -7.30037,4.90025 c 0,0 -2.40012,13.40068 -1.60008,14.10072 l 5.9003,10.90055 c 0,0 1.30006,3.20016 2.70014,3.40017 l -0.40002,2.00011 -7.20037,-0.40002 -1.70009,-1.30007 c 0,0 -4.70024,-18.70095 -5.60028,-18.50094 l -2.80015,-1.40008 0.50003,12.40064 4.80024,6.50033 -0.90004,1.10006 -7.7004,-0.10001 -1.9001,-2.80014 -3.00015,-23.4012 -3.9002,-4.50023 c 0,0 -21.901117,2.70014 -22.701157,2.10011 l -6.500332,4.70024 -2.100107,4.90025 -2.600133,-4.50023 -2.500127,4.40023 -2.200113,-4.30022 -2.700137,-0.20001 -1.900097,2.80014 5.400275,14.70075 6.000306,3.9002 c 0,0 2.100107,0.90004 0.600031,1.80009 l -8.700444,0.40002 c 0,0 -5.400276,-5.00025 -4.70024,-5.70029 l -6.300321,-19.10098 -2.000102,0.10001 -3.200164,14.50074 6.600337,10.80055 -1.800092,0.90005 -7.600387,-0.10001 c 0,0 -3.200164,0.60003 -2.300118,-3.40017 l -2.100107,-26.20134 2.100107,-11.8006 -2.900148,-14.60074 -0.500025,0.30001 1.100056,9.50049 -0.800041,6.40032 c 0,0 -5.600286,7.30037 -3.800194,-1.60008 0,0 1.900097,-17.6009 1.300067,-17.7009 0,0 -1.300069,-15.7008 10.500534,-18.50095 z"
         id="path4180" /></g></g></svg>
