<?xml version="1.0" encoding="UTF-8" standalone="no"?>
<!-- Created with Inkscape (http://www.inkscape.org/) -->

<svg
   width="51.43478mm"
   height="51.574753mm"
   viewBox="0 0 51.43478 51.574753"
   version="1.1"
   id="svg5"
   xml:space="preserve"
   xmlns:inkscape="http://www.inkscape.org/namespaces/inkscape"
   xmlns:sodipodi="http://sodipodi.sourceforge.net/DTD/sodipodi-0.dtd"
   xmlns="http://www.w3.org/2000/svg"
   xmlns:svg="http://www.w3.org/2000/svg"><sodipodi:namedview
     id="namedview7"
     pagecolor="#ffffff"
     bordercolor="#000000"
     borderopacity="0.25"
     inkscape:showpageshadow="2"
     inkscape:pageopacity="0.0"
     inkscape:pagecheckerboard="0"
     inkscape:deskcolor="#d1d1d1"
     inkscape:document-units="mm"
     showgrid="false" /><defs
     id="defs2" /><g
     inkscape:label="Layer 1"
     inkscape:groupmode="layer"
     id="layer1"
     transform="translate(-19.832716,-231.34892)"><g
       id="g4562"
       inkscape:label="blé"
       transform="translate(0.80004082,1.000051)"
       inkscape:export-filename=".\g4562.svg"
       inkscape:export-xdpi="96"
       inkscape:export-ydpi="96"><path
         style="opacity:1;fill:#000000;fill-opacity:1;fill-rule:nonzero;stroke:none;stroke-width:0.965;stroke-dasharray:none;stroke-opacity:1"
         d="m 28.992856,253.01571 c -6.788571,7.425 2.899286,13.08214 2.899286,13.08214 0,0 6.753213,-7.46036 -2.899286,-13.08214 z"
         id="path4228" /><path
         style="fill:#000000;fill-opacity:1;fill-rule:nonzero;stroke:none;stroke-width:0.965;stroke-dasharray:none;stroke-opacity:1"
         d="m 35.980102,246.37586 c -6.788571,7.425 2.899286,13.08214 2.899286,13.08214 0,0 6.753213,-7.46036 -2.899286,-13.08214 z"
         id="path4228-7" /><path
         style="fill:#000000;fill-opacity:1;fill-rule:nonzero;stroke:none;stroke-width:0.965;stroke-dasharray:none;stroke-opacity:1"
         d="m 43.410929,238.67144 c -6.788571,7.425 2.899286,13.08214 2.899286,13.08214 0,0 6.753213,-7.46036 -2.899286,-13.08214 z"
         id="path4228-7-3" /><path
         style="fill:#000000;fill-opacity:1;fill-rule:nonzero;stroke:none;stroke-width:0.965;stroke-dasharray:none;stroke-opacity:1"
         d="m 51.035582,232.15395 c -6.788571,7.425 2.899286,13.08214 2.899286,13.08214 0,0 6.753213,-7.46036 -2.899286,-13.08214 z"
         id="path4228-7-3-3" /><path
         style="fill:#000000;fill-opacity:1;fill-rule:nonzero;stroke:none;stroke-width:0.965;stroke-dasharray:none;stroke-opacity:1"
         d="m 48.543213,268.80501 c -7.425,6.78857 -13.08214,-2.89929 -13.08214,-2.89929 0,0 7.46036,-6.75321 13.08214,2.89929 z"
         id="path4228-7-3-3-7-7-1-9" /><path
         style="fill:#000000;fill-opacity:1;fill-rule:nonzero;stroke:none;stroke-width:0.965;stroke-dasharray:none;stroke-opacity:1"
         d="m 55.944257,262.00148 c -7.425,6.78857 -13.08214,-2.89929 -13.08214,-2.89929 0,0 7.46036,-6.75321 13.08214,2.89929 z"
         id="path4228-7-3-3-7-7-1-9-7" /><path
         style="fill:#000000;fill-opacity:1;fill-rule:nonzero;stroke:none;stroke-width:0.965;stroke-dasharray:none;stroke-opacity:1"
         d="m 63.344635,255.20114 c -7.425,6.78857 -13.08214,-2.89929 -13.08214,-2.89929 0,0 7.46036,-6.75321 13.08214,2.89929 z"
         id="path4228-7-3-3-7-7-1-9-7-2" /><path
         style="fill:#000000;fill-opacity:1;fill-rule:nonzero;stroke:none;stroke-width:0.965;stroke-dasharray:none;stroke-opacity:1"
         d="m 70.467451,249.17105 c -7.425,6.78857 -13.08214,-2.89929 -13.08214,-2.89929 0,0 7.46036,-6.75321 13.08214,2.89929 z"
         id="path4228-7-3-3-7-7-1-9-7-2-7" /><path
         style="fill:#000000;fill-opacity:1;fill-rule:nonzero;stroke:none;stroke-width:1;stroke-dasharray:none;stroke-opacity:1"
         d="m 59.595574,240.91683 c 10.047798,0.507 8.241552,-10.56528 8.241552,-10.56528 0,0 -10.05255,-0.45722 -8.241552,10.56528 z"
         id="path4228-7-3-3-7-7-1-9-7-2-6" /><path
         style="opacity:1;fill:none;fill-opacity:1;fill-rule:nonzero;stroke:#000000;stroke-width:0.964999;stroke-dasharray:none;stroke-opacity:1"
         d="M 32.245715,268.57285 19.375714,281.58429"
         id="path4528" /></g></g></svg>
