<?xml version="1.0" encoding="UTF-8" standalone="no"?>
<!-- Created with Inkscape (http://www.inkscape.org/) -->

<svg
   width="19.954536mm"
   height="13.782181mm"
   viewBox="0 0 19.954536 13.782181"
   version="1.1"
   id="svg5"
   xml:space="preserve"
   xmlns:inkscape="http://www.inkscape.org/namespaces/inkscape"
   xmlns:sodipodi="http://sodipodi.sourceforge.net/DTD/sodipodi-0.dtd"
   xmlns="http://www.w3.org/2000/svg"
   xmlns:svg="http://www.w3.org/2000/svg"><sodipodi:namedview
     id="namedview7"
     pagecolor="#ffffff"
     bordercolor="#000000"
     borderopacity="0.25"
     inkscape:showpageshadow="2"
     inkscape:pageopacity="0.0"
     inkscape:pagecheckerboard="0"
     inkscape:deskcolor="#d1d1d1"
     inkscape:document-units="mm"
     showgrid="false" /><defs
     id="defs2" /><g
     inkscape:label="Layer 1"
     inkscape:groupmode="layer"
     id="layer1"
     transform="translate(-104.72758,-188.58644)"><path
       style="fill:white;fill-opacity:1;stroke-width:0.264583"
       d="m 110.52643,202.06607 c -0.042,-0.0177 0.0291,-0.23927 0,-0.28286 -0.0185,-0.0277 -0.0536,-0.0421 -0.0707,-0.0707 -0.0192,-0.032 -0.0187,-0.0727 -0.0354,-0.10607 -0.0417,-0.0835 -0.1214,-0.13829 -0.17679,-0.21215 -0.0158,-0.0211 -0.0167,-0.0521 -0.0354,-0.0707 -0.0186,-0.0186 -0.0521,-0.0167 -0.0707,-0.0354 -0.008,-0.008 0.008,-0.027 0,-0.0354 -0.008,-0.008 -0.027,0.008 -0.0354,0 -0.008,-0.008 0.008,-0.027 0,-0.0353 -0.0264,-0.0263 -0.0797,-0.009 -0.10607,-0.0354 -0.008,-0.008 0,-0.0236 0,-0.0354 -0.0118,-0.0118 -0.0215,-0.0261 -0.0354,-0.0353 -0.0219,-0.0146 -0.0521,-0.0167 -0.0707,-0.0354 -0.0263,-0.0264 -0.013,-0.0763 -0.0354,-0.10607 -0.02,-0.0267 -0.0522,-0.043 -0.0707,-0.0707 -0.0232,-0.0349 -0.008,-0.14975 -0.0354,-0.17678 -0.0186,-0.0186 -0.0521,-0.0167 -0.0707,-0.0354 -0.0195,-0.0194 -0.0205,-0.14708 -0.0354,-0.17679 0.19517,-0.12827 -0.10378,-0.10263 -0.10607,-0.10607 -0.0414,-0.0622 -0.0494,-0.15545 -0.10607,-0.21214 -0.0186,-0.0186 -0.0521,-0.0167 -0.0707,-0.0354 -0.008,-0.008 0.005,-0.0248 0,-0.0353 -0.0311,-0.0622 -0.11033,-0.11458 -0.14143,-0.17679 -0.0367,-0.0735 -0.0545,-0.17873 -0.10607,-0.2475 -0.0325,-0.0433 -0.0891,-0.0904 -0.10607,-0.14143 -0.008,-0.0224 0.0105,-0.0496 0,-0.0707 -0.005,-0.0105 -0.027,0.008 -0.0354,0 -0.008,-0.008 0.008,-0.027 0,-0.0354 -0.0186,-0.0186 -0.0521,-0.0167 -0.0707,-0.0354 -0.0205,-0.0205 -0.0502,-0.12093 -0.0707,-0.14142 -0.008,-0.008 -0.027,0.008 -0.0354,0 -0.0365,-0.0365 -0.0514,-0.10276 -0.0707,-0.14143 -0.0248,-0.0495 -0.10195,-0.10195 -0.14143,-0.14143 -0.0236,-0.10602 -0.0513,-0.2112 -0.0707,-0.31805 -0.0107,-0.0587 -0.025,-0.5511 0,-0.60108 0.005,-0.0105 0.027,0.008 0.0354,0 0.0333,-0.0333 -0.0149,-0.0967 0,-0.14142 0.004,-0.0112 0.0316,0.0112 0.0354,0 0.0112,-0.0335 -0.009,-0.0718 0,-0.10608 0.004,-0.0162 0.0301,-0.0195 0.0354,-0.0354 0.0186,-0.0559 -0.01,-0.11866 0,-0.17679 0.0143,-0.0856 0.0363,-0.17866 0.0707,-0.2475 0.0336,-0.0672 -0.024,-0.17551 0,-0.2475 0.0117,-0.0352 0.059,-0.0709 0.0707,-0.10607 0.0354,-0.10607 -0.0177,-0.0354 0,-0.10607 0.0893,-0.35724 -0.0128,0.0255 0.0707,-0.14143 0.0387,-0.0774 0,-0.29979 0,-0.38893 0,-0.0966 0.0303,-0.26262 0,-0.35357 -0.005,-0.0158 -0.0301,-0.0195 -0.0354,-0.0354 -0.027,-0.0811 0.0298,-0.11158 -0.0354,-0.17678 -0.34682,-0.0758 -0.49697,0.0394 -0.63642,0.3183 -0.0105,0.0211 0.0105,0.0496 0,0.0707 -0.0325,0.065 -0.13335,0.0763 -0.17678,0.14142 -0.0684,0.10261 -0.14824,0.20346 -0.2475,0.28286 -0.0696,0.0557 -0.13201,0.046 -0.21215,0.10607 -0.0133,0.01 -0.0236,0.0236 -0.0354,0.0354 -0.0236,0.0354 -0.0367,0.0806 -0.0707,0.10607 -0.0189,0.0141 -0.0483,-0.007 -0.0707,0 -0.0467,0.0156 -0.0964,0.0835 -0.14142,0.10607 -0.0105,0.005 -0.027,-0.008 -0.0354,0 -0.0869,0.0126 -0.0147,0.0751 -0.0354,0.10607 -0.0418,0.0627 -0.0989,0.11304 -0.14143,0.17679 0.009,0.0747 -0.0561,0.0134 -0.0707,0.0354 -0.0207,0.031 -0.0162,0.0741 -0.0354,0.10607 -0.0309,0.0514 -0.11412,0.0868 -0.14143,0.14143 -0.11597,0.23194 -0.23736,0.46457 -0.31821,0.70714 -0.0347,0.10414 -0.1419,0.17818 -0.17679,0.28286 -0.0112,0.0335 0.0131,0.0732 0,0.10607 -0.0124,0.0309 -0.0522,0.043 -0.0707,0.0707 -0.0426,0.064 -0.11199,0.2299 -0.14143,0.31822 -0.0902,0.27065 -0.22728,0.54041 -0.31821,0.81321 0.0213,0.064 -0.0573,0.0658 -0.0707,0.10607 -0.0171,0.0514 0.0201,0.1265 0,0.17679 -0.0158,0.0395 -0.054,0.067 -0.0707,0.10607 -0.0338,0.0789 -0.0388,0.16784 -0.0707,0.2475 -0.0465,0.11623 -0.1289,0.52006 -0.0707,0.63643 0.0209,0.0418 0.0801,0.0671 0.10607,0.10607 0.0502,0.0753 0.0653,0.13069 0.10607,0.21214 0.0221,0.0443 0.0699,0.0338 0.10607,0.10607 0.0275,0.055 0.0972,0.28286 0.14143,0.28286 0.026,0.1246 0.0894,0.34415 -0.0707,0.42424 -0.087,0.0435 -0.9025,0 -1.06071,0 0.0118,-0.0825 0.0271,-0.16458 0.0354,-0.2475 0.0123,-0.12347 -0.0394,-0.30599 0,-0.42429 0.005,-0.0158 0.0301,-0.0195 0.0354,-0.0354 0.0318,-0.0952 0.0374,-0.21834 0.0707,-0.31821 0.0167,-0.05 0.0579,-0.0903 0.0707,-0.14143 0.0277,-0.1109 -0.0194,-0.1107 0.0354,-0.2475 0.0286,-0.0716 0.0851,-0.16341 0.10607,-0.2475 0.0223,-0.0892 0.0679,-0.31251 0.10607,-0.38893 0.0329,-0.0658 0.0722,-0.14433 0.10607,-0.21214 0.0149,-0.0298 0.0558,-0.0409 0.0707,-0.0707 0.0246,-0.0492 0.005,-0.11579 0.0354,-0.17679 0.0809,-0.16182 -0.0147,0.15004 0.0707,-0.10607 0.0284,-0.0852 -0.0219,-0.19539 0,-0.28286 0.0345,-0.13788 0.0457,-0.30348 0.10607,-0.42428 0.0422,-0.0845 -0.0301,-0.2278 0,-0.31822 0.005,-0.0158 0.0313,-0.0192 0.0354,-0.0354 0.0442,-0.17679 0,-0.4754 0,-0.67178 0.12342,-0.22622 0.20474,-0.40256 0.35358,-0.601 0.0384,-0.0513 0.20423,-0.25532 0.28285,-0.31822 0.0206,-0.0165 0.0521,-0.0167 0.0707,-0.0354 0.03,-0.03 0.0407,-0.076 0.0707,-0.10608 0.008,-0.008 0.0236,0 0.0354,0 0.0118,-0.0118 0.0254,-0.022 0.0354,-0.0353 0.051,-0.068 0.087,-0.14686 0.14143,-0.21215 0.0769,-0.0922 0.19279,-0.17343 0.2475,-0.28285 0.0167,-0.0333 0.0162,-0.0741 0.0354,-0.10607 0.0331,-0.0551 0.1026,-0.0897 0.14143,-0.14143 0.0255,-0.034 0.0517,-0.0681 0.0707,-0.10607 0.005,-0.0106 -0.008,-0.027 0,-0.0354 0.008,-0.008 0.027,0.008 0.0354,0 0.0167,-0.0167 -0.0105,-0.0496 0,-0.0707 0.0736,-0.14714 -0.002,0.0378 0.0707,-0.0353 0.0251,-0.0251 0.0231,-0.17526 0.0354,-0.21215 0.0481,-0.14415 0.0787,-0.29888 0.14143,-0.42428 0.0329,-0.0658 -0.0235,-0.17712 0,-0.2475 0.005,-0.0158 0.0301,-0.0196 0.0354,-0.0354 0.0177,-0.053 -0.0177,-0.12375 0,-0.17678 0.005,-0.0158 0.0313,-0.0192 0.0354,-0.0354 0.0412,-0.16482 0,-0.65301 0,-0.84857 0,-0.45965 0,-0.91929 0,-1.37893 0.20438,-0.11471 0.26554,-0.25974 0.38892,-0.42424 0.0414,-0.0552 0.11612,-0.0555 0.14142,-0.10607 0.0326,-0.0653 0.11665,-0.25807 0.17679,-0.31821 0.008,-0.008 0.0301,0.0105 0.0354,0 0.0158,-0.0316 -0.025,-0.0811 0,-0.10607 0.0186,-0.0186 0.0521,-0.0167 0.0707,-0.0354 0.0117,-0.0117 0.0603,-0.12055 0.0707,-0.14143 0.0293,-0.0586 0.10136,-0.066 0.14143,-0.10607 0.0288,-0.0289 0.0277,-0.0892 0.10607,-0.14143 0.0183,-0.0122 0.0918,-0.0211 0.10607,-0.0354 0.0186,-0.0186 0.0167,-0.0521 0.0354,-0.0707 0.0332,-0.0332 0.14175,-0.012 0.17679,-0.0354 0.0905,-0.0603 0.18442,-0.12756 0.28286,-0.17678 0.0211,-0.0105 0.0496,0.0105 0.0707,0 0.0608,-0.0304 0.11598,-0.0403 0.17678,-0.0707 0.076,-0.038 0.20138,0.0272 0.28286,0 0.12186,-0.0406 0.23003,-0.11054 0.35357,-0.14143 0.0651,-0.0163 0.14861,0.0212 0.21214,0 0.0158,-0.005 0.0199,-0.0292 0.0354,-0.0354 0.0558,-0.0223 0.13429,0.007 0.17679,-0.0354 0.008,-0.008 -0.0105,-0.0301 0,-0.0354 0.0211,-0.0105 0.0484,0.007 0.0707,0 0.0998,-0.0333 0.19429,-0.15309 0.28286,-0.21214 0.031,-0.0207 0.0797,-0.009 0.10607,-0.0354 0.0431,-0.0431 0.0166,-0.079 0.0707,-0.10607 0.0742,-0.0371 0.25786,-0.11643 0.31821,-0.17679 0.0263,-0.0263 0.0507,-0.12145 0.0707,-0.14142 0.008,-0.008 0.027,0.008 0.0354,0 0.0825,-0.0825 0.13943,-0.26418 0.2475,-0.31822 0.0456,-0.0228 0.10607,0.005 0.10607,-0.0707 0.30041,-0.0149 0.66424,-0.0966 0.95466,2.5e-4 0.0543,0.0181 0.0912,0.0759 0.14143,0.10607 0.032,0.0192 0.0727,0.0187 0.10607,0.0354 0.10862,0.0543 -0.0585,0.0199 0.0707,0.10607 0.0196,0.0131 0.0496,-0.0105 0.0707,0 0.0105,0.005 -0.005,0.0248 0,0.0353 0.0264,0.0527 0.0644,0.0998 0.10607,0.14143 0.0186,0.0186 0.0521,0.0167 0.0707,0.0354 0.0186,0.0186 0.0143,0.0549 0.0354,0.0707 0.0298,0.0224 0.0751,0.0147 0.10607,0.0354 0.0219,0.0146 0.0134,0.0561 0.0354,0.0707 0.0472,0.0315 0.13703,0.0663 0.17679,0.10607 0.008,0.008 -0.008,0.027 0,0.0353 0.008,0.008 0.0255,-0.007 0.0354,0 0.0277,0.0185 0.0421,0.0536 0.0707,0.0707 0.0417,0.025 0.10706,0.001 0.14143,0.0354 0.0731,0.0732 -0.1118,-0.003 0.0354,0.0707 0.0549,0.0274 0.16606,0.0123 0.21214,0.0354 0.0236,0.0118 0.0167,0.0521 0.0354,0.0707 0.0487,0.0487 0.21339,10e-4 0.2475,0.0354 0.0186,0.0186 0.0167,0.0521 0.0354,0.0707 0.0257,0.0257 0.70025,0.0354 0.81321,0.0354 0.0572,0 0.28564,0.0326 0.31822,0 0.008,-0.008 -0.008,-0.027 0,-0.0354 0.0289,-0.0289 0.12875,-0.0354 0.17678,-0.0354 0.0943,0.0354 0.18857,0.0707 0.28286,0.10606 0.0118,0.0118 0.0204,0.0279 0.0354,0.0353 0.10128,0.0506 0.22511,0.0716 0.31821,0.14143 0.16454,0.1234 0.31354,0.32887 0.42429,0.495 0.006,0.01 0,0.0236 0,0.0354 0.0236,0.0354 0.0452,0.0721 0.0707,0.10607 0.0404,0.0538 0.12122,0.11615 0.14143,0.17679 0.008,0.0224 -0.0131,0.0511 0,0.0707 0.0146,0.0219 0.0488,0.0207 0.0707,0.0354 0.14056,0.0937 0.23206,0.23978 0.38893,0.31821 0.0333,0.0167 0.0797,0.009 0.10607,0.0354 0.008,0.008 -0.01,0.0288 0,0.0354 0.0438,0.0292 0.0943,0.0471 0.14143,0.0707 0.0722,0.0361 0.17298,0.0167 0.2475,0.0354 0.0162,0.004 0.0236,0.0236 0.0354,0.0354 0.0354,0.0118 0.0695,0.028 0.10607,0.0353 0.15668,0.0313 0.68456,0.0682 0.84857,0.0354 0.0916,-0.0183 0.0483,-0.0322 0.10607,-0.0707 0.0319,-0.0702 0.098,-0.0136 0.14143,-0.0354 0.10087,-0.0504 0.18438,-0.18841 0.28286,-0.2475 0.0198,-0.0119 0.19116,-0.0851 0.21214,-0.10607 0.0186,-0.0186 0.0167,-0.0521 0.0354,-0.0707 0.006,-0.006 0.10038,-0.065 0.10607,-0.0707 0.008,-0.008 -0.008,-0.027 0,-0.0354 0.008,-0.008 0.0236,0 0.0354,0 0.0236,-0.0236 0.0558,-0.0409 0.0707,-0.0707 0.0105,-0.0211 -0.0121,-0.0505 0,-0.0707 0.0257,-0.0429 0.0803,-0.0632 0.10607,-0.10607 0.0121,-0.0202 -0.0105,-0.0496 0,-0.0707 0.005,-0.0105 0.0288,0.01 0.0354,0 0.0207,-0.031 0.0187,-0.0727 0.0354,-0.10607 0.0233,-0.0466 0.0828,-0.0949 0.10608,-0.14143 0.0435,-0.0871 -0.10264,0.0319 0.0354,-0.10607 0.008,-0.008 0.0301,0.0105 0.0354,0 0.0105,-0.0211 -0.0105,-0.0496 0,-0.0707 0.005,-0.0105 0.027,0.008 0.0354,0 0.0344,-0.0344 0.008,-0.10099 0.0354,-0.14143 0.006,-0.01 0.0316,0.0112 0.0354,0 0.0112,-0.0335 -0.0112,-0.0725 0,-0.10607 0.004,-0.0112 0.027,0.008 0.0354,0 0.0203,-0.0202 0.0245,-0.1088 0.0354,-0.14143 0.024,-0.0721 0.0757,-0.11613 0.10607,-0.17678 0.0105,-0.0211 -0.0131,-0.0511 0,-0.0707 0.0185,-0.0277 0.0522,-0.043 0.0707,-0.0707 0.0355,-0.0533 0.0153,-0.15195 0.0354,-0.21214 0.0243,-0.073 0.0763,-0.0819 0.10607,-0.14143 0.0141,-0.0283 -0.0141,-0.0778 0,-0.10607 0.0149,-0.0298 0.0522,-0.043 0.0707,-0.0707 0.039,-0.0585 0.005,-0.18622 0.0354,-0.2475 0.0149,-0.0298 0.0558,-0.0409 0.0707,-0.0707 0.007,-0.0141 0.01,-0.47521 0,-0.495 -0.0387,-0.0773 -0.22059,-0.19024 -0.0354,-0.28286 0.0513,-0.0256 0.38667,0.0103 0.42428,0.0354 0.0219,0.0146 0.0167,0.0521 0.0354,0.0707 0.0236,0.0236 0.13941,0.0167 0.17679,0.0354 0.0105,0.005 0,0.0236 0,0.0354 0.0118,0.0118 0.0195,0.0301 0.0354,0.0353 0.0709,0.0236 0.13222,0.0354 0.21214,0.0354 0.0359,0.12519 1.07208,-0.0281 1.16675,0.035 0.0927,0.0618 0.10103,0.11365 0.21214,0.14143 0.0343,0.009 0.0744,-0.0158 0.10607,0 0.0298,0.0149 0.0391,0.0602 0.0707,0.0707 0.0518,0.0173 0.23103,0.0173 0.28286,0 0.11036,-0.0368 -0.0118,-0.0236 0.0354,-0.0707 0.0274,-0.0274 0.164,-0.0594 0.21214,-0.0354 0.14715,0.0736 -0.0378,-0.002 0.0354,0.0707 0.049,0.049 0.10663,0.0719 0.14143,0.14143 0.0109,0.0219 0.0222,0.12832 0.0354,0.14143 0.0236,0.0118 0.0472,0.0236 0.0707,0.0354 0,0.0118 -0.008,0.027 0,0.0353 0.008,0.008 0.027,-0.008 0.0354,0 0.008,0.008 -0.007,0.0256 0,0.0354 0.092,0.13796 0.0341,0.0349 0.14142,0.0707 0.0158,0.005 0.0195,0.0301 0.0354,0.0353 0.0411,0.0137 0.18351,-0.0286 0.21214,0 0.0263,0.0263 0,0.24965 0,0.28286 0,0.0236 0.0167,0.054 0,0.0707 -0.0256,0.0256 -0.40479,0.0171 -0.45964,0.0354 -0.1592,0.0531 -0.32976,0.0648 -0.495,0.10607 -0.0768,0.0192 -0.17272,-0.0249 -0.2475,0 -0.0678,0.0226 -0.11798,0.0767 -0.17678,0.10607 -0.0697,0.0348 -0.20593,0.01 -0.28286,0.0354 -0.0158,0.005 -0.0236,0.0236 -0.0354,0.0354 -0.0236,0.0118 -0.0457,0.027 -0.0707,0.0354 -0.0411,0.0137 -0.10399,0.0166 -0.14143,0.0354 -0.14715,0.0736 0.0378,-0.002 -0.0354,0.0707 -0.007,0.007 -0.0996,0.0288 -0.10607,0.0353 -0.0186,0.0186 -0.0167,0.0521 -0.0354,0.0707 -0.0167,0.0167 -0.054,-0.0167 -0.0707,0 -0.008,0.008 0.008,0.027 0,0.0354 -0.0301,0.03 -0.0806,0.0367 -0.10607,0.0707 -0.0142,0.0189 0.007,0.0483 0,0.0707 -0.0105,0.0316 -0.0558,0.0409 -0.0707,0.0707 -0.0105,0.0211 0.0167,0.0541 0,0.0707 -0.008,0.008 -0.027,-0.008 -0.0353,0 -0.0167,0.0167 0.0131,0.0511 0,0.0707 -0.0277,0.0416 -0.0837,0.0614 -0.10608,0.10607 -0.0265,0.053 0.053,0.0354 0,0.10607 -0.0255,0.034 -0.0806,0.0367 -0.10607,0.0707 -0.003,0.004 -0.0317,0.20114 -0.0354,0.21215 -0.004,0.0112 -0.027,-0.008 -0.0354,0 -0.0513,0.0513 -0.0273,0.11885 -0.0707,0.17678 -0.02,0.0267 -0.0522,0.043 -0.0707,0.0707 -0.0328,0.0492 -0.0438,0.15821 -0.0707,0.21214 -0.0736,0.14715 0.002,-0.0378 -0.0707,0.0354 -0.0593,0.0593 -0.0487,0.11074 -0.0707,0.17678 -0.0413,0.12402 -0.22405,0.27133 -0.28285,0.38893 -0.0217,0.0435 -0.02,0.0953 -0.0354,0.14143 -0.0185,0.0556 -0.1081,0.0914 -0.14143,0.14143 -0.0174,0.0262 -0.13443,0.244 -0.14143,0.2475 -0.0211,0.0105 -0.0496,-0.0105 -0.0707,0 -0.0105,0.005 0.005,0.0248 0,0.0354 -0.0355,0.0709 -0.12778,0.0924 -0.17679,0.14142 -0.008,0.008 0.008,0.027 0,0.0354 -0.0483,0.0483 -0.25079,0.0611 -0.31821,0.10607 -0.01,0.007 0.008,0.027 0,0.0354 -0.0206,0.0205 -0.11171,0.0205 -0.14143,0.0354 -0.0351,0.0175 -0.0694,0.0585 -0.10607,0.0707 -0.0447,0.0149 -0.0957,-0.0114 -0.14143,0 -0.0737,0.0184 -0.14785,0.09 -0.21214,0.10607 -0.0343,0.009 -0.0725,-0.0112 -0.10607,0 -0.0403,0.0134 -0.0666,0.0549 -0.10607,0.0707 -0.0451,0.018 -0.0953,0.02 -0.14143,0.0353 -0.0335,0.0112 -0.0718,-0.009 -0.10607,0 -0.0915,0.0229 -0.15184,0.11752 -0.2475,0.14143 -0.099,0.0248 -0.21752,-0.0168 -0.31822,0 -0.26729,0.0445 -0.50457,0.0354 -0.77786,0.0354 -0.0862,0 -0.23074,-0.0219 -0.31821,0 -0.0162,0.004 -0.0204,0.0279 -0.0354,0.0354 -0.0372,0.0186 -0.13432,0 -0.17678,0 -0.0615,0.66717 -0.0355,1.34394 -0.0355,2.01521 0,0.24161 -0.003,0.45228 0.0707,0.67179 0.0177,0.053 -0.0354,0.0354 0,0.10607 0.005,0.0105 0.0301,-0.0105 0.0354,0 0.0105,0.0211 -0.006,0.0479 0,0.0707 0.0173,0.0692 0.077,0.11868 0.10607,0.17678 0.005,0.0105 0,0.0236 0,0.0354 0.0118,0.0354 0.0187,0.0727 0.0354,0.10607 0.0325,0.065 0.0842,0.1464 0.10607,0.21214 0.008,0.0224 -0.0105,0.0496 0,0.0707 0.0149,0.0298 0.0507,0.044 0.0707,0.0707 0.0779,0.0178 0.0187,0.0727 0.0354,0.10607 0.0189,0.0378 0.0518,0.0329 0.0707,0.0707 0.0217,0.0434 0.0387,0.0934 0.0707,0.14143 0.0185,0.0277 0.0558,0.0409 0.0707,0.0707 0.0105,0.0211 -0.009,0.0488 0,0.0707 0.0236,0.0471 0.0471,0.0943 0.0707,0.14143 0,0.0118 -0.004,0.0242 0,0.0354 0.0339,0.10171 0.12988,0.18905 0.17678,0.28286 0.0113,0.0225 0.0153,1.01947 0,1.09607 -0.005,0.0258 -0.027,0.0457 -0.0354,0.0707 -0.0227,0.0682 -0.0286,0.36716 0,0.42429 0.0896,0.17927 0.19083,0.34631 0.28286,0.53036 0.0167,0.0333 0.0162,0.0741 0.0354,0.10607 0.0303,0.0505 0.0644,0.0998 0.10607,0.14143 0.008,0.008 0.0301,-0.0105 0.0354,0 0.0105,0.0211 -0.008,0.0483 0,0.0707 0.0368,0.11036 0.0236,-0.0118 0.0707,0.0354 0.008,0.008 -0.008,0.027 0,0.0353 0.008,0.008 0.027,-0.008 0.0354,0 0.0627,0.0627 0.095,0.15763 0.17679,0.21215 0.11786,0.0786 0.26347,0.15341 0.38893,0.2475 0.0528,0.0396 0.0886,0.10183 0.14142,0.14143 0.0243,0.0182 0.13607,0.12106 0.17679,0.14142 0.0105,0.005 0.027,-0.008 0.0354,0 0.008,0.008 0,0.0236 0,0.0354 0.0118,0.0118 0.0215,0.0261 0.0354,0.0354 0.0219,0.0146 0.0521,0.0167 0.0707,0.0354 0.003,0.003 0.13854,0.20925 0.14143,0.21214 0.0263,0.0263 0.0797,0.009 0.10607,0.0354 0.0731,0.0731 -0.11179,-0.003 0.0354,0.0707 0.0105,0.005 0.027,-0.008 0.0354,0 0.0266,0.0266 0.0121,0.26705 -0.0354,0.28286 -0.11405,0.038 -0.31975,-5.2e-4 -0.42429,-0.0354 -0.0989,-0.033 -0.26063,0.0465 -0.35357,0 -0.0665,-0.0333 -0.16928,-0.0707 -0.2475,-0.0707 -0.0579,0 -0.18076,0.0274 -0.21214,-0.0354 -0.0434,-0.0868 0,-0.28545 0,-0.38893 0,-0.0599 0.0293,-0.25954 0,-0.31821 -0.0835,-0.16697 0.0186,0.2158 -0.0707,-0.14143 -0.024,-0.096 -0.0224,-0.18632 -0.0707,-0.28286 -0.038,-0.076 -0.0912,-0.0912 -0.14143,-0.14143 -0.0118,-0.0118 -0.0236,-0.0236 -0.0354,-0.0354 -0.0118,-0.0236 -0.0167,-0.0521 -0.0354,-0.0707 -0.008,-0.008 -0.027,0.008 -0.0354,0 -0.008,-0.008 0.008,-0.027 0,-0.0354 -0.008,-0.008 -0.027,0.008 -0.0354,0 -0.0186,-0.0186 -0.0167,-0.0521 -0.0354,-0.0707 -0.0732,-0.0732 0.003,0.11179 -0.0707,-0.0354 -0.005,-0.0105 0.008,-0.027 0,-0.0354 -0.008,-0.008 -0.027,0.008 -0.0354,0 -0.0186,-0.0186 -0.0195,-0.0496 -0.0354,-0.0707 -0.0383,-0.051 -0.10576,-0.0879 -0.14143,-0.14143 -0.064,-0.0961 -0.0908,-0.1969 -0.17678,-0.28286 -0.0186,-0.0186 -0.0549,-0.0143 -0.0707,-0.0353 -0.0447,-0.0596 -0.0374,-0.14548 -0.0707,-0.21215 -0.007,-0.0135 -0.13398,-0.14699 -0.14143,-0.17678 -0.019,-0.0759 2.4e-4,-0.1763 -0.0354,-0.2475 -0.0149,-0.0298 -0.0522,-0.043 -0.0707,-0.0707 -0.0403,-0.0604 -0.0677,-0.18992 -0.10607,-0.2475 -0.0185,-0.0277 -0.0558,-0.0409 -0.0707,-0.0707 -0.0265,-0.053 -0.0252,-0.20202 -0.0707,-0.2475 -0.008,-0.008 -0.027,0.008 -0.0354,0 -0.0228,-0.0228 0.008,-0.14493 0,-0.17679 -0.0295,-0.11789 -0.10294,-0.23809 -0.14143,-0.35357 -0.0359,-0.10772 0,-1.00193 0,-1.16678 0,-0.055 0.0245,-0.16323 0,-0.21215 -0.079,-0.15809 -0.0707,-0.009 -0.0707,-0.10607 0,-0.12788 -0.0591,-0.27139 -0.10607,-0.38893 -0.006,-0.0155 -0.0301,-0.0195 -0.0354,-0.0353 -0.007,-0.0224 0.006,-0.0479 0,-0.0707 -0.0465,-0.18618 -0.27141,-0.68374 -0.45964,-0.77785 -0.0211,-0.0105 -0.0496,0.0105 -0.0707,0 -0.0298,-0.0149 -0.0409,-0.0558 -0.0707,-0.0707 -0.0302,-0.0151 -0.0758,-0.0202 -0.10607,-0.0354 -0.0545,-0.0272 -0.0588,-0.0707 -0.10607,-0.0707 -0.0707,-0.0472 -0.13836,-0.0993 -0.21216,-0.14148 -0.0473,-0.027 -0.075,0.0552 -0.10607,0.0707 -0.0392,0.0196 -0.28361,0.0173 -0.31822,0 -0.0938,-0.0469 -0.14657,-0.16168 -0.2475,-0.21215 -0.035,-0.0175 -0.32095,-0.0184 -0.38892,-0.0353 -0.0942,-0.0236 -0.18615,-0.0819 -0.28286,-0.10608 -0.0863,-0.0216 -0.19849,0.0281 -0.28286,0 -0.14792,0.064 -0.0409,-0.0558 -0.0707,-0.0707 -0.0408,-0.0204 -0.16273,0 -0.21214,0 -0.0851,0 -0.26396,-0.0189 -0.31822,0.0354 -0.0186,0.0186 -0.0167,0.0521 -0.0354,0.0707 -0.008,0.008 -0.0316,-0.0112 -0.0354,0 -0.0112,0.0335 0.006,0.0712 0,0.10607 -0.04,0.24031 -0.078,0.54385 0,0.77786 0.0266,0.0798 0.12978,0.14163 0.17679,0.21214 0.039,0.0586 0.0752,0.15031 0.10607,0.21215 0.0158,0.0316 -0.0112,0.0725 0,0.10607 0.0105,0.0316 0.0558,0.0409 0.0707,0.0707 0.0211,0.0422 -0.0114,0.0957 0,0.14143 0.004,0.0162 0.0301,0.0195 0.0354,0.0354 0.0112,0.0335 -0.0158,0.0744 0,0.10607 0.0255,0.0511 0.0452,0.0904 0.0707,0.14143 0.0211,0.0422 -0.0114,0.0957 0,0.14143 0.004,0.0162 0.0313,0.0192 0.0354,0.0354 0.009,0.0343 -0.009,0.0718 0,0.10607 0.0107,0.0428 0.0503,0.10063 0.0707,0.14143 0.0462,0.0925 0,0.35214 0,0.45965 0,0.14726 0.0435,0.47047 0,0.60107 -0.0893,0.26792 0.0128,-0.0128 -0.0707,0.0707 -0.13799,0.13799 0.008,0.019 -0.0354,0.10607 -0.004,0.008 -0.20396,0.16452 -0.21214,0.17679 -0.0131,0.0196 0.0131,0.0511 0,0.0707 -0.0861,0.1292 -0.0518,-0.0379 -0.10607,0.0707 -0.0224,0.0449 -0.0298,0.1359 -0.0707,0.17678 -0.008,0.008 -0.027,-0.008 -0.0354,0 -0.0429,0.0429 -0.11468,0.15864 -0.14143,0.21215 -0.0105,0.0211 0.0167,0.054 0,0.0707 -0.008,0.008 -0.027,-0.008 -0.0354,0 -0.0589,0.0589 -0.0534,0.14287 -0.0707,0.21214 -0.0427,0.17074 -0.0168,-0.002 -0.0707,0.10607 -0.0347,0.0694 -0.15844,0.29852 -0.17679,0.35358 -0.008,0.0224 0.006,0.0478 0,0.0707 -0.0361,0.14443 -0.11578,0.30228 -0.17678,0.42429 -0.0199,0.0397 -0.008,0.14942 -0.0354,0.17678 -0.0198,0.0198 -0.0539,0.0203 -0.0707,0.0707 -0.0449,0.13462 0,0.4806 0,0.63642 0,0.0236 -0.0167,0.054 0,0.0707 0.008,0.008 0.027,-0.008 0.0354,0 0.008,0.008 -0.008,0.027 0,0.0354 0.008,0.008 0.027,-0.008 0.0354,0 0.0186,0.0186 0.0207,0.0488 0.0354,0.0707 0.0212,0.0318 0.10542,0.0821 0.14143,0.10607 0.031,0.0207 0.0797,0.009 0.10607,0.0354 0.0731,0.0731 -0.11179,-0.003 0.0354,0.0707 0.0449,0.0224 0.1359,0.0298 0.17678,0.0707 0.008,0.008 0,0.0236 0,0.0353 0.0118,0.0118 0.0215,0.0261 0.0354,0.0354 0.0219,0.0146 0.0521,0.0167 0.0707,0.0354 0.0141,0.0141 0.003,0.24406 0,0.2475 -0.008,0.008 -0.027,-0.008 -0.0354,0 -0.0177,0.0177 0.0177,0.0884 0,0.10607 -0.0186,0.0186 -0.0471,0.0236 -0.0707,0.0354 -0.0292,0.0146 -0.98614,0.0249 -1.06071,0 -0.0403,-0.0134 -0.0658,-0.0573 -0.10607,-0.0707 -0.0607,-0.0202 -0.0729,0.031 -0.10607,-0.0353 -0.0224,-0.0447 -0.0193,-0.71998 0,-0.77786 0.005,-0.0156 0.0256,-0.12187 0.0354,-0.14143 0.019,-0.038 0.0549,-0.0666 0.0707,-0.10607 0.009,-0.0219 0,-0.0471 0,-0.0707 0.0118,-0.0236 0.0236,-0.0471 0.0354,-0.0707 0.0143,-0.0287 0.0347,-0.0881 0.0707,-0.10607 0.0105,-0.005 0.0301,0.0105 0.0354,0 0.0105,-0.0211 -0.009,-0.0488 0,-0.0707 0.0158,-0.0395 0.0549,-0.0666 0.0707,-0.10607 0.009,-0.0219 -0.0105,-0.0496 0,-0.0707 0.005,-0.0105 0.027,0.008 0.0354,0 0.008,-0.008 -0.006,-0.0256 0,-0.0354 0.0277,-0.0416 0.0837,-0.0614 0.10607,-0.10607 0.0451,-0.0902 0.0667,-0.24346 0.14143,-0.31821 0.008,-0.008 0.0301,0.0105 0.0354,0 0.0105,-0.0211 -0.007,-0.0484 0,-0.0707 0.0296,-0.0888 0.11183,-0.19406 0.14143,-0.28286 0.008,-0.0224 -0.0131,-0.0511 0,-0.0707 0.0146,-0.0219 0.0561,-0.0134 0.0707,-0.0354 0.0344,-0.0515 0.007,-0.19065 0.0354,-0.2475 0.0149,-0.0298 0.0558,-0.0409 0.0707,-0.0707 0.0334,-0.0668 0.0115,-0.42354 0.0354,-0.495 0.0134,-0.0403 0.0604,-0.0649 0.0707,-0.10607 0.0143,-0.0572 -0.007,-0.11831 0,-0.17679 0.005,-0.037 0.0263,-0.0699 0.0354,-0.10607 0.0247,-0.0987 0,-0.24966 0,-0.35357 0,-0.30643 0,-0.61286 0,-0.91929 0,-0.29464 0,-0.58928 0,-0.88393 0,-0.11844 0.0229,-0.27468 0,-0.38892 -0.0538,-0.26901 -0.0604,-0.55536 -0.2475,-0.7425 -0.0448,-0.0448 -0.55543,-0.0354 -0.63643,-0.0354 -0.20138,0 -1.24783,-0.0437 -1.37893,0 -0.0455,0.0152 -0.0959,0.0909 -0.14143,0.10607 -0.0702,0.0234 -0.21305,0.003 -0.2475,0.10607 -0.007,0.0224 0.0131,0.0511 0,0.0707 -0.0146,0.0219 -0.0521,0.0167 -0.0707,0.0353 -0.0338,0.0338 -0.10607,0.13256 -0.10607,0.17679 -0.0118,0.0824 -0.009,0.16835 -0.0354,0.24736 -0.0181,0.0542 -0.26089,0.31249 -0.31821,0.38893 -0.0412,0.055 -0.0575,0.12819 -0.10608,0.17678 -0.0186,0.0186 -0.0521,0.0167 -0.0707,0.0354 -0.008,0.008 0.007,0.0255 0,0.0354 -0.037,0.0555 -0.10142,0.0881 -0.14142,0.14143 -0.12198,0.16263 0.0719,-0.0371 -0.0707,0.17678 -0.0146,0.0219 -0.0521,0.0167 -0.0707,0.0354 -0.0618,0.0618 -0.0481,0.10899 -0.0707,0.17678 -0.0134,0.0403 -0.0407,0.076 -0.0707,0.10608 -0.008,0.008 -0.0288,-0.01 -0.0354,0 -0.0132,0.0198 -0.13523,0.25805 -0.14143,0.28285 -0.006,0.0229 0.008,0.0484 0,0.0707 -0.005,0.0158 -0.0313,0.0192 -0.0354,0.0353 -0.0448,0.17916 -0.0305,0.34716 0,0.53036 0.017,0.10209 0.0858,0.18138 0.10607,0.28286 0.007,0.0347 -0.009,0.0718 0,0.10607 0.0249,0.0997 0.0859,0.18205 0.10607,0.28286 0.0182,0.091 0.007,0.16362 0.0354,0.2475 0.0432,0.1296 0.13531,0.22913 0.17679,0.35357 0.0216,0.0648 0.017,0.14801 0.0354,0.21214 0.0816,0.28548 0.0388,0.0776 0.14142,0.28286 0.0364,0.0729 0.0374,0.19959 0.0707,0.28286 0.0776,0.19406 0.17802,0.46169 0.28286,0.63642 0.0215,0.0358 0.0888,0.15048 0.14143,0.17679 0.0105,0.005 0.027,-0.008 0.0354,0 0.0431,0.0431 0.0166,0.079 0.0707,0.10607 0.0626,0.0313 0.0121,-0.0526 0.0707,0.0354 0.0146,0.0219 0.0236,0.0471 0.0354,0.0707 0.0118,0.0354 0.0147,0.0751 0.0354,0.10607 0.007,0.01 0.0255,-0.007 0.0354,0 0.0816,0.0544 0.13055,0.15775 0.21214,0.21215 0.0548,0.0365 0.17679,0.0413 0.17679,0.10607 0.20661,0.12682 0.93181,0.42762 0.45962,0.74242 -0.13041,0.0869 -0.27963,-0.13981 -0.35357,-0.17679 -0.10372,-0.0519 -0.28522,0.0519 -0.38893,0 -0.19206,-0.096 -0.15678,-0.0596 -0.38893,-0.10607 z"
       id="path289"
       inkscape:export-filename="path289.svg"
       inkscape:export-xdpi="96"
       inkscape:export-ydpi="96" /></g></svg>
