<?xml version="1.0" encoding="UTF-8" standalone="no"?>
<!-- Created with Inkscape (http://www.inkscape.org/) -->

<svg
   width="42.677444mm"
   height="31.597mm"
   viewBox="0 0 42.677444 31.597"
   version="1.1"
   id="svg5"
   xml:space="preserve"
   xmlns:inkscape="http://www.inkscape.org/namespaces/inkscape"
   xmlns:sodipodi="http://sodipodi.sourceforge.net/DTD/sodipodi-0.dtd"
   xmlns="http://www.w3.org/2000/svg"
   xmlns:svg="http://www.w3.org/2000/svg"><sodipodi:namedview
     id="namedview7"
     pagecolor="#ffffff"
     bordercolor="#FFCF40"
     borderopacity="0.25"
     inkscape:showpageshadow="2"
     inkscape:pageopacity="0.0"
     inkscape:pagecheckerboard="0"
     inkscape:deskcolor="#d1d1d1"
     inkscape:document-units="mm"
     showgrid="false" /><defs
     id="defs2" /><g
     inkscape:label="Layer 1"
     inkscape:groupmode="layer"
     id="layer1"
     transform="translate(-148.53229,-211.3654)"><g
       id="g7941"
       inkscape:label="gold"><path
         style="opacity:1;fill:#FFCF40;fill-opacity:1;fill-rule:nonzero;stroke:none;stroke-width:0.964999;stroke-dasharray:none;stroke-opacity:1"
         d="m 159.885,238.02428 c 0,0 15.41571,-14.42571 19.305,-17.18357 0,0 2.7225,2.51036 2.61643,2.97 L 160.7582,242.9624 c 0,0 -1.39638,-5.02599 -0.8732,-4.93812 z"
         id="path5627" /><path
         style="opacity:1;fill:#FFCF40;fill-opacity:1;fill-rule:nonzero;stroke:none;stroke-width:0.964999;stroke-dasharray:none;stroke-opacity:1"
         d="m 159.10811,242.46237 c 0,0 -0.90004,-2.0001 -0.80003,-4.60024 l -5.9003,-4.50022 -0.05,3.75019 z"
         id="path5629" /><path
         style="opacity:1;fill:#FFCF40;fill-opacity:1;fill-rule:nonzero;stroke:none;stroke-width:0.964999;stroke-dasharray:none;stroke-opacity:1"
         d="m 159.05811,236.56207 18.60095,-16.35084 -6.05031,-3.30017 -18.25093,15.40079 z"
         id="path5631" /><path
         style="opacity:1;fill:#FFCF40;fill-opacity:1;fill-rule:nonzero;stroke:none;stroke-width:0.964999;stroke-dasharray:none;stroke-opacity:1"
         d="m 184.85943,233.91193 0.75004,4.55023 -12.95066,-3.60018 3.45017,-3.55018 c 0,0 7.95041,3.25016 8.75045,2.60013 z"
         id="path5633" /><path
         style="opacity:1;fill:#FFCF40;fill-opacity:1;fill-rule:nonzero;stroke:none;stroke-width:0.964999;stroke-dasharray:none;stroke-opacity:1"
         d="m 186.85953,237.66212 c 0,0 3.9002,-4.45022 4.35022,-5.65029 l -1.95009,-3.20016 c 0,0 -3.00016,4.75025 -3.25017,4.45023 0,0 1.30006,4.1502 0.85004,4.40022 z"
         id="path5635" /><path
         style="opacity:1;fill:#FFCF40;fill-opacity:1;fill-rule:nonzero;stroke:none;stroke-width:0.964999;stroke-dasharray:none;stroke-opacity:1"
         d="m 177.30904,230.11174 c 0,0 6.85035,2.75014 7.55039,2.30011 l 3.35017,-4.75024 -6.60033,-1.80009 z"
         id="path5637" /><rect
         style="opacity:1;fill:#FFCF40;fill-opacity:1;fill-rule:nonzero;stroke:none;stroke-width:0.96501;stroke-dasharray:none;stroke-opacity:1"
         id="rect6365"
         width="4.8191562"
         height="1.3478528"
         x="197.08951"
         y="181.25996"
         ry="0.58751738"
         rx="0.58736616"
         transform="matrix(0.97047185,0.24121441,-0.23470358,0.97206699,0,0)" /><rect
         style="fill:#FFCF40;fill-opacity:1;fill-rule:nonzero;stroke:none;stroke-width:0.96501;stroke-dasharray:none;stroke-opacity:1"
         id="rect6365-5"
         width="4.8191562"
         height="1.3478528"
         x="254.8475"
         y="72.976761"
         ry="0.58751738"
         rx="0.58736616"
         transform="matrix(0.77614362,0.63055617,-0.62533925,0.78035301,0,0)" /><rect
         style="fill:#FFCF40;fill-opacity:1;fill-rule:nonzero;stroke:none;stroke-width:0.96501;stroke-dasharray:none;stroke-opacity:1"
         id="rect6365-5-7"
         width="4.8191562"
         height="1.3478528"
         x="263.37531"
         y="-41.757847"
         ry="0.58751738"
         rx="0.58736616"
         transform="matrix(0.4625852,0.88657483,-0.88345404,0.46851783,0,0)" /><rect
         style="fill:#FFCF40;fill-opacity:1;fill-rule:nonzero;stroke:none;stroke-width:0.96501;stroke-dasharray:none;stroke-opacity:1"
         id="rect6365-5-7-1"
         width="4.8191562"
         height="1.3478528"
         x="187.01225"
         y="-206.58162"
         ry="0.58751738"
         rx="0.58736616"
         transform="matrix(-0.13307296,0.99110624,-0.99197601,-0.12642624,0,0)" /><rect
         style="fill:#FFCF40;fill-opacity:1;fill-rule:nonzero;stroke:none;stroke-width:0.96501;stroke-dasharray:none;stroke-opacity:1"
         id="rect6365-5-7-1-9"
         width="4.8191562"
         height="1.3478528"
         x="-90.346863"
         y="270.73221"
         ry="0.58751738"
         rx="0.58736616"
         transform="matrix(0.52904875,-0.84859143,0.85211876,0.52334846,0,0)" /><rect
         style="fill:#FFCF40;fill-opacity:1;fill-rule:nonzero;stroke:none;stroke-width:0.96501;stroke-dasharray:none;stroke-opacity:1"
         id="rect6365-5-7-1-9-4"
         width="4.8191562"
         height="1.3478528"
         x="25.688234"
         y="288.33929"
         ry="0.58751738"
         rx="0.58736616"
         transform="matrix(0.82398378,-0.56661339,0.5721241,0.82016706,0,0)" /></g></g></svg>
