<?xml version="1.0" encoding="UTF-8" standalone="no"?>
<!-- Created with Inkscape (http://www.inkscape.org/) -->

<svg
   width="158.82974mm"
   height="118.06025mm"
   viewBox="0 0 158.82974 118.06025"
   version="1.1"
   id="svg5"
   xml:space="preserve"
   xmlns:inkscape="http://www.inkscape.org/namespaces/inkscape"
   xmlns:sodipodi="http://sodipodi.sourceforge.net/DTD/sodipodi-0.dtd"
   xmlns="http://www.w3.org/2000/svg"
   xmlns:svg="http://www.w3.org/2000/svg"><sodipodi:namedview
     id="namedview7"
     pagecolor="#ffffff"
     bordercolor="#000000"
     borderopacity="0.25"
     inkscape:showpageshadow="2"
     inkscape:pageopacity="0.0"
     inkscape:pagecheckerboard="0"
     inkscape:deskcolor="#d1d1d1"
     inkscape:document-units="mm"
     showgrid="false" /><defs
     id="defs2" /><g
     inkscape:label="Layer 1"
     inkscape:groupmode="layer"
     id="layer1"
     transform="translate(-38.051331,-46.148791)"><path
       style="opacity:1;fill:#C7C1B5;fill-opacity:1;stroke-width:0.264583"
       d="m 49.502525,76.90392 c 0,0 -2.100107,-12.00061 19.701004,-9.8005 0,0 8.40043,-14.00071 19.200981,-0.70003 0,0 8.100413,-5.20027 18.30093,-0.10001 0.20001,0.10001 6.50033,-9.70049 13.60069,2.70014 0,0 6.70035,-5.00026 11.30058,-0.70004 0,0 3.30017,-5.70029 10.70055,-3.20016 0,0 1.30006,-7.20037 9.20047,-6.30032 0,0 -0.40003,-7.40038 7.50038,-7.8004 0,0 3.9002,-6.40032 9.30047,-3.10016 0,0 5.60029,-4.20021 10.20052,0.40002 0,0 12.60065,-0.30001 1.9001,10.60054 0,0 0.60003,1.40008 0.60003,3.70019 0,0 1.50008,-2.70013 0.70004,-3.00015 0,0 4.40022,-1.9001 4.90025,-4.90025 0,0 20.40104,21.6011 3.70018,23.70121 l -4.90025,0.50003 c 0,0 0.50003,-4.30022 -3.70018,-6.10032 0,0 6.60033,10.60054 -3.60019,12.70065 0,0 0.10001,6.60034 -6.40032,8.50044 0,0 0,5.70029 -3.40018,7.50038 0,0 1.40007,9.40048 -5.60028,10.30052 0,0 -0.70004,9.60049 -8.00041,9.90051 0,0 -1.00005,5.40027 -6.00031,5.30027 0,0 -0.70003,2.90015 -1.70008,2.90015 l -0.40002,23.30119 c 0,0 3.80019,11.10056 5.20026,11.00056 h -9.70049 l -3.20017,-7.40038 -0.70003,-27.60141 c 0,0 -1.28826,-1.17136 -0.68719,-1.41886 0,0 -3.85393,-0.38892 -4.95,-3.18214 0,0 -3.57107,2.26286 -6.85928,0.0354 0,0 -2.93465,2.15674 -7.81393,-0.31826 0,0 -7.14214,4.38429 -13.86,-0.21214 0,0 -8.556426,3.74786 -13.364997,-2.475 0,0 -5.445,5.58643 -10.324286,-1.485 0,0 -2.757857,2.82857 -6.93,0 0,0 -0.99,5.16214 -4.808571,5.30357 0,0 -0.353572,5.86929 -5.586429,6.08143 0,0 -2.899286,15.20357 -4.384286,15.345 0,0 -0.212143,1.41429 0.07071,1.41429 l 7.707862,15.62785 -9.758572,-0.0707 -5.445,-18.95144 c 0,0 0.353572,-14.07214 0.848572,-14.07214 0,0 -6.435,-8.83929 -0.424286,-14.49643 0,0 -5.586429,-4.10143 -1.697143,-11.31429 0,0 -9.475714,-5.79857 -0.565714,-11.73857 0,0 -5.303572,-4.80857 0,-12.87 0,0 -5.727857,3.39429 -2.687143,11.73857 0,0 -3.747857,1.13143 -4.95,6.01072 0,0 -12.189684,-17.19334 7.765158,-21.25453 z"
       id="path3371"
       inkscape:export-filename=".\sheep.svg"
       inkscape:export-xdpi="96"
       inkscape:export-ydpi="96" /></g></svg>
